<?xml version="1.0" encoding="utf-8"?>
<!-- Generator: Adobe Illustrator 16.0.0, SVG Export Plug-In . SVG Version: 6.00 Build 0)  -->
<!DOCTYPE svg PUBLIC "-//W3C//DTD SVG 1.1//EN" "http://www.w3.org/Graphics/SVG/1.1/DTD/svg11.dtd">
<svg version="1.1" id="Layer_1" xmlns="http://www.w3.org/2000/svg" xmlns:xlink="http://www.w3.org/1999/xlink" x="0px" y="0px"
	 width="566.929px" height="566.929px" viewBox="0 0 566.929 566.929" enable-background="new 0 0 566.929 566.929"
	 xml:space="preserve">
<g>
	<path fill="#272829" d="M264.565,323.623c-7.085-2.362-14.172-3.544-22.44-3.544c-34.252-1.18-64.961,20.078-64.961,46.062
		c0,25.984,24.804,47.245,59.057,47.245c47.244,0,64.959-21.261,64.958-44.881c0-3.545,0-5.905-1.18-9.449
		C296.454,343.702,283.463,336.615,264.565,323.623z"/>
	<path fill="#272829" d="M278.74,209.055c-3.544-30.709-25.986-54.331-48.427-55.512c-22.44-1.182-37.796,21.259-34.252,51.968
		c3.543,29.528,25.984,54.332,48.426,55.513C268.11,261.024,283.464,237.402,278.74,209.055z"/>
	<path fill="#272829" d="M283.464,0C126.911,0,0,126.911,0,283.463c0,156.555,126.911,283.466,283.465,283.466
		c156.553,0,283.464-126.911,283.464-283.466C566.928,126.911,440.017,0,283.464,0z M322.438,362.599
		c0,31.89-30.708,63.779-87.4,63.779c-49.606,0-90.945-20.078-90.945-51.968s37.795-63.781,87.401-63.781c4.726,0,10.63,0,15.354,0
		c-5.904-7.083-11.81-15.354-11.81-24.803c0-5.906,2.362-11.811,4.725-16.533c-2.362,0-5.907,0-8.269,0
		c-40.157,0-67.322-29.528-67.322-64.961c0-34.251,37.796-64.96,77.954-64.96h88.582l-20.079,14.173h-28.346
		c18.898,8.267,28.346,29.527,28.346,51.968c0,18.897-10.628,34.252-24.802,46.063c-14.174,11.811-16.535,16.535-16.535,25.983
		c0,7.086,15.354,21.262,23.622,27.163C316.535,321.26,323.622,337.796,322.438,362.599z M421.653,290.551h-34.252v35.434h-28.347
		v-35.434h-34.252v-27.166h34.252v-34.251h28.347v34.251h34.252V290.551z"/>
</g>
</svg>
