<?xml version="1.0" encoding="utf-8"?>
<!-- Generator: Adobe Illustrator 16.0.0, SVG Export Plug-In . SVG Version: 6.00 Build 0)  -->
<!DOCTYPE svg PUBLIC "-//W3C//DTD SVG 1.1//EN" "http://www.w3.org/Graphics/SVG/1.1/DTD/svg11.dtd">
<svg version="1.1" id="Layer_1" xmlns="http://www.w3.org/2000/svg" xmlns:xlink="http://www.w3.org/1999/xlink" x="0px" y="0px"
	 width="566.929px" height="566.93px" viewBox="0 0 566.929 566.93" enable-background="new 0 0 566.929 566.93"
	 xml:space="preserve">
<path fill="#272829" d="M283.464,0C126.911,0,0,126.911,0,283.464C0,440.019,126.911,566.93,283.465,566.93
	c156.553,0,283.464-126.911,283.464-283.466C566.928,126.911,440.017,0,283.464,0z M205.512,412.204h-54.331V237.402h54.331V412.204
	z M175.983,214.961c-20.078,0-33.072-12.992-33.072-30.709c0-17.717,12.994-30.708,33.072-30.708
	c20.079,0,33.071,12.993,33.071,30.708S197.243,214.961,175.983,214.961z M424.016,412.204h-62.601v-90.943
	c0-23.622-9.448-40.159-30.708-40.159c-16.534,0-24.803,10.632-29.527,21.262c-1.18,3.542-1.18,9.447-1.18,14.172v94.488h-61.417
	c0,0,1.181-160.63,0-174.802H300v27.165c3.544-11.812,23.623-29.527,54.331-29.527c38.977,0,69.685,24.803,69.685,79.136V412.204
	L424.016,412.204z"/>
</svg>
