<?xml version="1.0" encoding="utf-8"?>
<!-- Generator: Adobe Illustrator 17.0.0, SVG Export Plug-In . SVG Version: 6.00 Build 0)  -->
<!DOCTYPE svg PUBLIC "-//W3C//DTD SVG 1.1//EN" "http://www.w3.org/Graphics/SVG/1.1/DTD/svg11.dtd">
<svg version="1.1" id="Layer_1" xmlns="http://www.w3.org/2000/svg" xmlns:xlink="http://www.w3.org/1999/xlink" x="0px" y="0px"
	 width="566.93px" height="566.941px" viewBox="0 0 566.93 566.941" enable-background="new 0 0 566.93 566.941"
	 xml:space="preserve">
<path fill="#272829" d="M564.668,249.612c-0.27-2.262-0.756-4.451-1.082-6.694C543.854,105.655,426.193,0,283.471,0
	C126.913,0,0,126.913,0,283.471c0,156.555,126.913,283.471,283.471,283.471c2.362,0,4.66-0.265,6.992-0.394
	c0.817-0.043,1.639-0.056,2.457-0.099c2.955-0.145,5.912-0.302,8.855-0.492c3.033-0.193,5.957-0.775,8.957-1.082
	c6.496-0.671,13.023-1.268,19.39-2.363c10.735-1.842,21.31-4.204,31.593-7.185c17.867-5.177,35.018-11.907,51.28-20.276
	c56.978-29.307,102.183-77.512,128.444-136.125c0.193-0.449,0.492-0.843,0.692-1.279c5.358-12.125,10.135-24.552,13.78-37.501
	c2.128-7.561,3.672-15.343,5.213-23.13c0.511-2.587,1.344-5.057,1.769-7.678c0.981-5.992,1.28-12.199,1.874-18.308
	c0.547-5.647,1.418-11.196,1.67-16.93c0.162-3.543,0.492-7.05,0.492-10.63C566.936,271.974,566,260.753,564.668,249.612z
	 M334.692,454.931c-0.875,6.124-3.937,9.187-9.624,10.062c-7.874,0.875-15.749,2.187-23.623,2.625
	c-19.248,1.312-38.059,0.437-57.308-2.187c-1.312-0.438-3.062-0.438-4.375-0.875c-6.125-1.312-9.187-4.812-9.624-11.374
	c-0.438-7.874-0.875-15.749-0.875-23.623c0-33.247,0-66.932,0-100.179c0-27.998,5.687-54.683,17.499-80.493
	c8.749-19.248,14.436-39.372,17.061-60.37c0.437-5.687,0.875-11.812,1.312-17.499c0-1.75,0-5.687,0-6.999
	c0.438-13.999,0.875-27.56,0.875-41.559c0-1.75-0.875-3.5-1.312-5.25c0-0.875-0.437-1.312-0.437-2.187c0-2.187,0-4.375,0-6.562
	c0.437-1.75,0.875-3.062,1.312-4.375c0.437-0.875,0.437-2.187,0.437-3.062c-0.437-1.75,0.438-2.625,2.187-3.062
	c1.75-0.438,3.062-0.875,4.812-0.875c6.999,0,10.499,0,17.936,0c1.75,0,4.375,0.437,6.124,0.875
	c1.312,0.438,2.187,1.312,2.187,3.062c0,0.875,0,2.187,0.438,3.062c0.437,1.75,1.312,3.062,1.312,4.375c0,2.187,0,4.375,0,6.562
	c0,0.875-0.437,1.312-0.437,2.187c-0.437,1.75-1.312,3.062-1.312,4.812c0,0.875,0,1.312,0,1.312c0,3.5,0,7.437,0,10.937
	c0,9.624,0,19.686,0.438,29.747v-0.438c0.437,3.937,0.437,7.437,0.437,10.937c0.875,19.686,4.375,38.497,10.937,56.433
	c3.937,10.937,8.749,21.436,12.686,32.372c6.999,19.249,11.374,39.372,11.374,59.933c0.438,38.934,0.438,77.868,0.875,115.928
	C336.004,444.432,335.567,449.681,334.692,454.931z"/>
</svg>
